<?xml version="1.0" encoding="utf-8"?>
<!-- Generator: Adobe Illustrator 19.2.1, SVG Export Plug-In . SVG Version: 6.00 Build 0)  -->
<svg version="1.1" id="Layer_1" xmlns="http://www.w3.org/2000/svg" xmlns:xlink="http://www.w3.org/1999/xlink" x="0px" y="0px"
	 viewBox="0 0 91 150" style="enable-background:new 0 0 91 150;" xml:space="preserve">
<style type="text/css">
	.st0{fill:#BD1E2D;}
	.st1{fill:#FFFFFF;}
	.st2{fill:#E5E6E7;}
	.st3{fill:#C32C3B;}
	.st4{fill:#8D180F;}
	.st5{fill:#FEFEFE;}
	.st6{fill:#F0F1F0;}
	.st7{fill:#D0D2D3;}
	.st8{fill:#A2FFA3;}
	.st9{fill:#98F19A;}
	.st10{fill:#C9FFCF;}
	.st11{fill:#BAF0BD;}
	.st12{fill:#569767;}
	.st13{fill:#FFBBF3;}
	.st14{fill:#88DEDE;}
	.st15{fill:#F0F1F1;}
	.st16{fill:#72CED3;}
	.st17{fill:#FFA4F3;}
	.st18{fill:#A6A8AB;}
	.st19{fill:#F1DBBF;}
	.st20{fill:#E0CCB0;}
	.st21{fill:#CAB79C;}
	.st22{fill:#E783B9;}
	.st23{fill:#FFC94D;}
	.st24{fill:#FFD056;}
	.st25{fill:#FFBB15;}
	.st26{fill:#73C6FF;}
	.st27{fill:#73BAFF;}
	.st28{fill:#83CBFF;}
	.st29{fill:#6294BC;}
	.st30{fill:#F26F61;}
	.st31{fill:#FFDB9D;}
	.st32{fill:#E8BC7A;}
	.st33{fill:#FECD85;}
	.st34{fill:#F3F4F4;}
	.st35{fill:#F47B6C;}
	.st36{fill:#E6695C;}
	.st37{fill:#58595B;}
	.st38{fill:#989A9D;}
	.st39{fill:#808184;}
	.st40{fill:#6D6E71;}
	.st41{fill:#4B6984;}
	.st42{fill:#BBBDBF;}
	.st43{fill:#F6F6F6;}
	.st44{fill:#C1C3C4;}
	.st45{fill:#56C681;}
	.st46{fill:#E75C54;}
	.st47{fill:#929497;}
	.st48{fill:#A13021;}
	.st49{fill:#BB6388;}
	.st50{fill:#DCA0FF;}
	.st51{fill:#73DEEF;}
	.st52{fill:#73D1E5;}
	.st53{fill:#DC92FF;}
	.st54{fill:#726097;}
	.st55{fill:#FFF5DC;}
	.st56{fill:#A8AAAC;}
	.st57{fill:#637564;}
	.st58{fill:#5D6061;}
	.st59{fill:#626566;}
	.st60{fill:#727376;}
	.st61{fill:#C85049;}
	.st62{fill:#809C4D;}
	.st63{fill:#A38062;}
	.st64{fill:#67564D;}
	.st65{fill:#5E4E46;}
	.st66{fill:#76914C;}
	.st67{fill:#99785C;}
	.st68{fill:#606C4E;}
	.st69{fill:#715842;}
	.st70{fill:#594A42;}
	.st71{fill:#BCBEC0;}
	.st72{fill:#A31C5C;}
	.st73{fill:#8C973F;}
	.st74{fill:#D9DADB;}
	.st75{fill:#858F39;}
	.st76{fill:#95A041;}
	.st77{fill:#505153;}
	.st78{fill:#606163;}
	.st79{fill:#8D0058;}
	.st80{fill:#797A7D;}
	.st81{fill:#414042;}
	.st82{fill:#6C0A42;}
</style>
<g>
	<g>
		<path class="st7" d="M90,7v120.31C90,139.29,80.29,149,68.31,149H1V7h6h77H90z M83,56.31V13H8v58h60.31
			C76.42,71,83,64.42,83,56.31z M84,97c0-2.76-2.24-5-5-5s-5,2.24-5,5s2.24,5,5,5S84,99.76,84,97z M69,104c0-2.76-2.24-5-5-5
			c-2.76,0-5,2.24-5,5s2.24,5,5,5C66.76,109,69,106.76,69,104z M53.24,122.09c0-0.22-0.04-0.43-0.14-0.63
			c-0.36-0.75-1.25-1.07-2-0.72l-7.24,3.4c-0.54,0.25-0.86,0.8-0.86,1.36c0,0.22,0.04,0.43,0.14,0.64c0.35,0.75,1.25,1.07,2,0.72
			l7.24-3.41C52.92,123.2,53.24,122.65,53.24,122.09z M37.24,122.09c0-0.22-0.04-0.43-0.14-0.63c-0.36-0.75-1.25-1.07-2-0.72
			l-7.24,3.4c-0.54,0.25-0.86,0.8-0.86,1.36c0,0.22,0.04,0.43,0.14,0.64c0.35,0.75,1.25,1.07,2,0.72l7.24-3.41
			C36.92,123.2,37.24,122.65,37.24,122.09z M30,105v-7h-8v-8h-7v8H7v7h8v8h7v-8H30z"/>
		<path class="st71" d="M84,7H74v6h9v43.31c0,6.093-3.714,11.32-9,13.545V97c0-2.76,2.24-5,5-5s5,2.24,5,5s-2.24,5-5,5s-5-2.24-5-5
			v30.31C74,139.29,64.29,149,52.31,149h16C80.29,149,90,139.29,90,127.31V7H84z"/>
		<rect x="84" y="1" class="st7" width="6" height="6"/>
		<rect x="7" y="1" class="st7" width="77" height="6"/>
		<path class="st39" d="M83,13v43.31C83,64.42,76.42,71,68.31,71H8V13H83z M70,64V19H21v45H70z M16,34.5c0-0.83-0.67-1.5-1.5-1.5
			S13,33.67,13,34.5s0.67,1.5,1.5,1.5S16,35.33,16,34.5z"/>
		<circle class="st72" cx="79" cy="97" r="5"/>
		<rect x="21" y="19" class="st73" width="49" height="45"/>
		<polygon class="st74" points="15,105 7,105 7,98 15,98 15,90 15,71 8,71 8,13 15,13 15,7 7,7 1,7 1,149 15,149 15,113 		"/>
		<circle class="st72" cx="64" cy="104" r="5"/>
		<path class="st39" d="M53.1,121.46c0.1,0.2,0.14,0.41,0.14,0.63c0,0.56-0.32,1.11-0.86,1.36l-7.24,3.41
			c-0.75,0.35-1.65,0.03-2-0.72c-0.1-0.21-0.14-0.42-0.14-0.64c0-0.56,0.32-1.11,0.86-1.36l7.24-3.4
			C51.85,120.39,52.74,120.71,53.1,121.46z"/>
		<path class="st39" d="M37.1,121.46c0.1,0.2,0.14,0.41,0.14,0.63c0,0.56-0.32,1.11-0.86,1.36l-7.24,3.41
			c-0.75,0.35-1.65,0.03-2-0.72c-0.1-0.21-0.14-0.42-0.14-0.64c0-0.56,0.32-1.11,0.86-1.36l7.24-3.4
			C35.85,120.39,36.74,120.71,37.1,121.46z"/>
		<polygon class="st37" points="30,98 30,105 22,105 22,113 15,113 15,105 7,105 7,98 15,98 15,90 22,90 22,98 		"/>
		<rect x="1" y="1" class="st7" width="6" height="6"/>
		<rect x="74" y="1" class="st42" width="16" height="6"/>
		<rect x="1" y="1" class="st74" width="14" height="6"/>
		<rect x="59" y="19" class="st75" width="11" height="45"/>
		<rect x="21" y="19" class="st76" width="11" height="45"/>
		<g>
			<rect x="26" y="98" class="st77" width="4" height="7"/>
		</g>
		<g>
			<rect x="7" y="98" class="st78" width="4" height="7"/>
		</g>
		<path class="st79" d="M79,92c-0.526,0-1.023,0.104-1.5,0.255C79.523,92.895,81,94.766,81,97s-1.477,4.105-3.5,4.745
			C77.977,101.896,78.474,102,79,102c2.76,0,5-2.24,5-5S81.76,92,79,92z"/>
		<path class="st79" d="M64,99c-0.526,0-1.023,0.104-1.5,0.255c2.023,0.641,3.5,2.511,3.5,4.745s-1.477,4.105-3.5,4.745
			C62.977,108.896,63.474,109,64,109c2.76,0,5-2.24,5-5S66.76,99,64,99z"/>
		<g>
			<path class="st80" d="M74,13v43.31C74,64.42,67.42,71,59.31,71h9C76.42,71,83,64.42,83,56.31V13H74z"/>
		</g>
	</g>
	<g>
		<path class="st81" d="M22,114h-7c-0.553,0-1-0.447-1-1v-7H7c-0.553,0-1-0.447-1-1v-7c0-0.553,0.447-1,1-1h7v-7
			c0-0.553,0.447-1,1-1h7c0.553,0,1,0.447,1,1v7h7c0.553,0,1,0.447,1,1v7c0,0.553-0.447,1-1,1h-7v7C23,113.553,22.553,114,22,114z
			 M16,112h5v-7c0-0.553,0.447-1,1-1h7v-5h-7c-0.553,0-1-0.447-1-1v-7h-5v7c0,0.553-0.447,1-1,1H8v5h7c0.553,0,1,0.447,1,1V112z"/>
		<path class="st82" d="M64,110c-3.309,0-6-2.691-6-6s2.691-6,6-6s6,2.691,6,6S67.309,110,64,110z M64,100c-2.206,0-4,1.794-4,4
			s1.794,4,4,4s4-1.794,4-4S66.206,100,64,100z"/>
		<path class="st82" d="M79,103c-3.309,0-6-2.691-6-6s2.691-6,6-6s6,2.691,6,6S82.309,103,79,103z M79,93c-2.206,0-4,1.794-4,4
			s1.794,4,4,4s4-1.794,4-4S81.206,93,79,93z"/>
		<path class="st47" d="M62.561,145c-0.332,0-0.656-0.165-0.847-0.466l-6.56-10.39c-0.295-0.468-0.155-1.085,0.312-1.38
			c0.47-0.294,1.085-0.154,1.38,0.312l6.56,10.39c0.295,0.468,0.155,1.085-0.312,1.38C62.928,144.95,62.743,145,62.561,145z"/>
		<path class="st47" d="M66.981,142.52c-0.332,0-0.656-0.165-0.847-0.467l-6.551-10.39c-0.295-0.467-0.155-1.085,0.312-1.379
			c0.466-0.293,1.084-0.154,1.379,0.312l6.551,10.39c0.295,0.467,0.155,1.085-0.312,1.379
			C67.349,142.47,67.164,142.52,66.981,142.52z"/>
		<path class="st47" d="M71.411,140.04c-0.332,0-0.656-0.165-0.847-0.466l-6.561-10.39c-0.295-0.467-0.155-1.085,0.312-1.38
			c0.469-0.293,1.085-0.154,1.38,0.312l6.561,10.39c0.295,0.467,0.155,1.085-0.312,1.38C71.778,139.99,71.594,140.04,71.411,140.04z
			"/>
		<path class="st47" d="M75.831,137.56c-0.332,0-0.657-0.165-0.847-0.467l-6.55-10.39c-0.295-0.467-0.154-1.085,0.312-1.379
			c0.466-0.294,1.086-0.155,1.379,0.312l6.55,10.39c0.295,0.467,0.155,1.085-0.312,1.379C76.198,137.51,76.014,137.56,75.831,137.56
			z"/>
		<path class="st47" d="M80.261,135.08c-0.332,0-0.656-0.165-0.847-0.466l-6.56-10.39c-0.295-0.468-0.155-1.085,0.312-1.38
			c0.468-0.294,1.086-0.154,1.38,0.312l6.56,10.39c0.295,0.468,0.155,1.085-0.312,1.38C80.628,135.03,80.443,135.08,80.261,135.08z"
			/>
		<path class="st47" d="M84.681,132.6c-0.332,0-0.657-0.165-0.847-0.467l-6.55-10.39c-0.295-0.467-0.154-1.085,0.312-1.379
			c0.466-0.293,1.086-0.154,1.379,0.312l6.55,10.39c0.295,0.467,0.155,1.085-0.312,1.379C85.048,132.55,84.863,132.6,84.681,132.6z"
			/>
		<g>
			<circle class="st37" cx="14.5" cy="34.5" r="1.5"/>
			<path class="st37" d="M90,0H1C0.447,0,0,0.448,0,1v148c0,0.553,0.447,1,1,1h67.31C80.821,150,91,139.821,91,127.31V1
				C91,0.448,90.553,0,90,0z M89,6h-4V2h4V6z M8,6V2h75v4H8z M6,2v4H2V2H6z M68.31,148H2V8h87v119.31
				C89,138.719,79.719,148,68.31,148z"/>
			<path class="st37" d="M21,65h49c0.553,0,1-0.448,1-1V19c0-0.552-0.447-1-1-1H21c-0.553,0-1,0.448-1,1v45
				C20,64.552,20.447,65,21,65z M22,20h47v43H22V20z"/>
			<path class="st37" d="M34.675,119.835l-7.234,3.397c-0.875,0.404-1.44,1.295-1.44,2.268c0,0.384,0.077,0.733,0.233,1.063
				c0.424,0.905,1.326,1.438,2.271,1.438c0.355,0,0.718-0.075,1.062-0.236l7.239-3.409c0.872-0.406,1.436-1.295,1.436-2.266
				c0-0.39-0.083-0.753-0.239-1.062C37.408,119.79,35.915,119.256,34.675,119.835z M35.96,122.543
				c-0.002,0.001-0.004,0.002-0.006,0.003l-7.237,3.408c-0.253,0.117-0.555,0.012-0.674-0.243C28.013,125.646,28,125.585,28,125.5
				c0-0.161,0.087-0.363,0.285-0.455l7.238-3.398c0.069-0.033,0.142-0.049,0.213-0.049c0.191,0,0.374,0.112,0.47,0.312
				c0.016,0.031,0.034,0.081,0.034,0.181C36.24,122.251,36.153,122.453,35.96,122.543z"/>
			<path class="st37" d="M50.675,119.835l-7.234,3.397c-0.875,0.404-1.44,1.295-1.44,2.268c0,0.384,0.077,0.733,0.233,1.063
				c0.424,0.905,1.326,1.438,2.271,1.438c0.355,0,0.718-0.075,1.062-0.236l7.239-3.409c0.872-0.406,1.436-1.295,1.436-2.266
				c0-0.39-0.083-0.753-0.239-1.062C53.408,119.79,51.915,119.256,50.675,119.835z M51.96,122.543
				c-0.002,0.001-0.004,0.002-0.006,0.003l-7.237,3.408c-0.251,0.117-0.556,0.012-0.674-0.243C44.013,125.646,44,125.585,44,125.5
				c0-0.161,0.087-0.363,0.285-0.455l7.238-3.398c0.069-0.033,0.142-0.049,0.213-0.049c0.191,0,0.374,0.112,0.47,0.312
				c0.016,0.031,0.034,0.081,0.034,0.181C52.24,122.251,52.153,122.453,51.96,122.543z"/>
			<path class="st37" d="M83,12H8c-0.553,0-1,0.448-1,1v58c0,0.552,0.447,1,1,1h60.31C76.961,72,84,64.961,84,56.31V13
				C84,12.448,83.553,12,83,12z M82,56.31C82,63.859,75.858,70,68.31,70H9V14h73V56.31z"/>
		</g>
	</g>
</g>
</svg>
